<svg xmlns="http://www.w3.org/2000/svg" fill="none" class="icon" viewBox="0 0 20 20"><path fill="currentColor" fill-rule="evenodd" d="M6.529 8.07c0-.851.69-1.542 1.541-1.542h8.334c.851 0 1.541.69 1.541 1.542v8.334c0 .85-.69 1.541-1.541 1.541H8.07c-.851 0-1.541-.69-1.541-1.541zm1.541-.125a.125.125 0 0 0-.125.125v8.334c0 .069.056.125.125.125h8.334a.125.125 0 0 0 .125-.125V8.07a.125.125 0 0 0-.125-.125zM1.792 3.333c0-.851.69-1.541 1.541-1.541h8.334c.851 0 1.541.69 1.541 1.541v1.09a.708.708 0 0 1-1.416 0v-1.09a.125.125 0 0 0-.125-.125H3.333a.125.125 0 0 0-.125.125v8.334c0 .069.056.125.125.125h1.09a.708.708 0 1 1 0 1.416h-1.09c-.851 0-1.541-.69-1.541-1.541z" clip-rule="evenodd"></path><!----></svg>